<svg xmlns="http://www.w3.org/2000/svg" xmlns:xlink="http://www.w3.org/1999/xlink" width="1000" zoomAndPan="magnify" viewBox="0 0 750 749.999995" height="1000" preserveAspectRatio="xMidYMid meet" version="1.2"><defs><clipPath id="acd1a567b4"><path d="M 59.257812 59.257812 L 690.734375 59.257812 L 690.734375 690.734375 L 59.257812 690.734375 Z M 59.257812 59.257812 "/></clipPath><clipPath id="5033cd7ee7"><path d="M 374.996094 59.257812 C 200.621094 59.257812 59.257812 200.621094 59.257812 374.996094 C 59.257812 549.375 200.621094 690.734375 374.996094 690.734375 C 549.375 690.734375 690.734375 549.375 690.734375 374.996094 C 690.734375 200.621094 549.375 59.257812 374.996094 59.257812 Z M 374.996094 59.257812 "/></clipPath><clipPath id="f341d4f34a"><path d="M 85 352 L 427 352 L 427 667 L 85 667 Z M 85 352 "/></clipPath><clipPath id="b51ad0f346"><path d="M 414.878906 331.40625 L 434.589844 663.820312 L 99.179688 683.710938 L 79.46875 351.292969 Z M 414.878906 331.40625 "/></clipPath><clipPath id="51a500f25e"><path d="M 414.878906 331.40625 L 434.589844 663.820312 L 99.179688 683.710938 L 79.46875 351.292969 Z M 414.878906 331.40625 "/></clipPath></defs><g id="e0eed51461"><g clip-rule="nonzero" clip-path="url(#acd1a567b4)"><g clip-rule="nonzero" clip-path="url(#5033cd7ee7)"><path style="fill:none;stroke-width:200;stroke-linecap:butt;stroke-linejoin:miter;stroke:#ffffff;stroke-opacity:1;stroke-miterlimit:4;" d="M 420.983446 -0.00097255 C 188.483435 -0.00097255 -0.000949416 188.483412 -0.000949416 420.983423 C -0.000949416 653.488643 188.483435 841.967818 420.983446 841.967818 C 653.488666 841.967818 841.967842 653.488643 841.967842 420.983423 C 841.967842 188.483412 653.488666 -0.00097255 420.983446 -0.00097255 Z M 420.983446 -0.00097255 " transform="matrix(0.75,0,0,0.75,59.258525,59.258542)"/></g></g><g clip-rule="nonzero" clip-path="url(#f341d4f34a)"><g clip-rule="nonzero" clip-path="url(#b51ad0f346)"><g clip-rule="nonzero" clip-path="url(#51a500f25e)"><path style=" stroke:none;fill-rule:nonzero;fill:#ffffff;fill-opacity:1;" d="M 413.484375 649.242188 C 429.292969 633.503906 431.265625 607.726562 414.90625 591.730469 C 407.691406 584.800781 398.386719 580.050781 389.898438 575.054688 C 379.96875 569.199219 369.964844 563.460938 360.011719 557.636719 C 341.054688 546.515625 322.015625 535.457031 303.710938 523.183594 C 299.375 520.277344 295.042969 517.476562 290.574219 514.6875 L 286.988281 511.402344 C 273.4375 498.710938 260.222656 486.109375 249.164062 471.046875 C 238.109375 455.988281 230.472656 439.585938 222.671875 422.777344 C 207.011719 389.050781 183.628906 354.363281 142.730469 352.097656 C 106.511719 350.105469 85.992188 381.507812 85.777344 414.371094 C 85.53125 449.566406 104.140625 484.285156 122.195312 513.425781 C 132.011719 529.25 143.039062 544.179688 155.28125 558.210938 C 167.519531 572.242188 180.8125 585.195312 195.160156 597.070312 C 210.121094 609.683594 226.09375 620.851562 243.074219 630.578125 C 260.054688 640.300781 277.773438 648.425781 296.222656 654.945312 C 316.496094 661.992188 337.363281 665.78125 358.820312 666.3125 C 378.203125 666.773438 399.195312 663.472656 413.484375 649.242188 Z M 413.484375 649.242188 "/></g></g></g><path style="fill:none;stroke-width:84;stroke-linecap:round;stroke-linejoin:miter;stroke:#ffffff;stroke-opacity:1;stroke-miterlimit:4;" d="M 42.002228 41.999901 L 252.521132 42.000557 " transform="matrix(-0.568036,-0.489729,0.489729,-0.568036,487.473795,534.552186)"/><path style="fill:none;stroke-width:84;stroke-linecap:round;stroke-linejoin:miter;stroke:#ffffff;stroke-opacity:1;stroke-miterlimit:4;" d="M 42.002395 41.999784 L 200.069253 41.999784 " transform="matrix(0,-0.749806,0.749806,0,331.25439,416.649912)"/></g></svg>