<svg id="visual" viewBox="0 0 3840 2160" width="3840" height="2160" xmlns="http://www.w3.org/2000/svg" xmlns:xlink="http://www.w3.org/1999/xlink" version="1.1"><rect x="0" y="0" width="3840" height="2160" fill="#ffffff"></rect><path d="M0 1680L64 1681.2C128 1682.3 256 1684.7 384 1676.7C512 1668.7 640 1650.3 768 1673.5C896 1696.7 1024 1761.3 1152 1788.2C1280 1815 1408 1804 1536 1808.5C1664 1813 1792 1833 1920 1818.8C2048 1804.7 2176 1756.3 2304 1733C2432 1709.7 2560 1711.3 2688 1730.3C2816 1749.3 2944 1785.7 3072 1789C3200 1792.3 3328 1762.7 3456 1735.2C3584 1707.7 3712 1682.3 3776 1669.7L3840 1657L3840 2161L3776 2161C3712 2161 3584 2161 3456 2161C3328 2161 3200 2161 3072 2161C2944 2161 2816 2161 2688 2161C2560 2161 2432 2161 2304 2161C2176 2161 2048 2161 1920 2161C1792 2161 1664 2161 1536 2161C1408 2161 1280 2161 1152 2161C1024 2161 896 2161 768 2161C640 2161 512 2161 384 2161C256 2161 128 2161 64 2161L0 2161Z" fill="#171717" stroke-linecap="round" stroke-linejoin="miter"></path></svg>